<svg width="34" height="24" viewBox="0 0 34 24" fill="none" xmlns="http://www.w3.org/2000/svg">
<path fill-rule="evenodd" clip-rule="evenodd" d="M16.7114 16.0972L8.98758 10.4488L11.3079 8.75198L16.7114 12.7036L22.115 8.75198L24.4353 10.4488L16.7114 16.0972ZM16.7114 2.40039C9.4618 2.40039 3.58398 6.69759 3.58398 12.0004C3.58398 17.302 9.4618 21.6004 16.7114 21.6004C23.9611 21.6004 29.8389 17.302 29.8389 12.0004C29.8389 6.69759 23.9611 2.40039 16.7114 2.40039Z" fill="#C0CCDA"/>
<mask id="mask0_3479_408" style="mask-type:alpha" maskUnits="userSpaceOnUse" x="3" y="2" width="27" height="20">
<path fill-rule="evenodd" clip-rule="evenodd" d="M16.7114 16.0972L8.98758 10.4488L11.3079 8.75198L16.7114 12.7036L22.115 8.75198L24.4353 10.4488L16.7114 16.0972ZM16.7114 2.40039C9.4618 2.40039 3.58398 6.69759 3.58398 12.0004C3.58398 17.302 9.4618 21.6004 16.7114 21.6004C23.9611 21.6004 29.8389 17.302 29.8389 12.0004C29.8389 6.69759 23.9611 2.40039 16.7114 2.40039Z" fill="white"/>
</mask>
<g mask="url(#mask0_3479_408)">
</g>
</svg>
